<?xml version="1.0" encoding="utf-8"?>
<!-- Generator: Adobe Illustrator 17.0.0, SVG Export Plug-In . SVG Version: 6.00 Build 0)  -->
<!DOCTYPE svg PUBLIC "-//W3C//DTD SVG 1.1//EN" "http://www.w3.org/Graphics/SVG/1.1/DTD/svg11.dtd">
<svg version="1.1" xmlns="http://www.w3.org/2000/svg" xmlns:xlink="http://www.w3.org/1999/xlink" x="0px" y="0px" width="550px"
	 height="385px" viewBox="0 0 550 385" enable-background="new 0 0 550 385" xml:space="preserve">
<g id="background">
</g>
<g id="infinity_symbol_1_">
	<g>
		
			<radialGradient id="SVGID_1_" cx="295.7154" cy="673.0212" r="138.6756" gradientTransform="matrix(1.0903 0 0 0.1483 -47.4187 171.7993)" gradientUnits="userSpaceOnUse">
			<stop  offset="0" style="stop-color:#868686"/>
			<stop  offset="0.0045" style="stop-color:#888888"/>
			<stop  offset="0.1087" style="stop-color:#ACACAC"/>
			<stop  offset="0.2175" style="stop-color:#CACACA"/>
			<stop  offset="0.3323" style="stop-color:#E2E2E2"/>
			<stop  offset="0.4548" style="stop-color:#F2F2F2"/>
			<stop  offset="0.5902" style="stop-color:#FCFCFC"/>
			<stop  offset="0.7637" style="stop-color:#FFFFFF"/>
		</radialGradient>
		<path opacity="0.5" fill="url(#SVGID_1_)" d="M426.199,271.609c0,11.357-67.693,20.564-151.198,20.564
			c-83.506,0-151.201-9.207-151.201-20.564c0-11.353,67.695-20.566,151.201-20.566C358.506,251.043,426.199,260.257,426.199,271.609
			z"/>
		<g id="_x33__2_">
			<g id="color_2_">
				<linearGradient id="color_1_" gradientUnits="userSpaceOnUse" x1="145.7351" y1="168.6723" x2="403.5207" y2="168.6723">
					<stop  offset="6.576800e-04" style="stop-color:#CCCCCC"/>
					<stop  offset="1" style="stop-color:#818181"/>
				</linearGradient>
				<path id="color_3_" fill="url(#color_1_)" d="M385.276,118.676c-17.445-19.641-42.727-28.178-66.953-25.104
					c-0.004-0.001-0.004-0.006-0.004-0.008c-0.047,0.007-0.094,0.016-0.141,0.021c-1.674,0.217-3.336,0.496-4.994,0.822
					c-0.295,0.058-0.588,0.123-0.883,0.184c-1.645,0.346-3.287,0.729-4.914,1.184c-0.025,0.004-0.045,0.011-0.065,0.017
					c-1.682,0.472-3.348,1.013-5.004,1.601c-0.264,0.094-0.525,0.192-0.791,0.289c-3.258,1.199-6.453,2.629-9.56,4.292
					c-0.289,0.153-0.576,0.313-0.865,0.472c-3.047,1.678-6.006,3.582-8.857,5.713c-0.316,0.237-0.635,0.479-0.951,0.725
					c-1.402,1.081-2.783,2.196-4.127,3.389c-0.434,0.39-0.846,0.793-1.267,1.186c-5.07-5.036-10.703-9.227-16.715-12.567
					c-0.032-0.019-0.066-0.036-0.101-0.055c-1.08-0.604-2.188-1.173-3.305-1.727c-0.312-0.153-0.624-0.305-0.936-0.455
					c-0.846-0.4-1.702-0.785-2.566-1.157c-0.48-0.204-0.959-0.413-1.44-0.61c-0.692-0.283-1.401-0.545-2.106-0.81
					c-0.473-0.178-0.933-0.374-1.41-0.542c-0.014-0.004-0.024,0.011-0.037,0.01c-24.596-8.59-52.945-4.416-74.396,13.496
					c-32.46,27.112-36.791,75.406-9.674,107.861c27.109,32.463,75.4,36.812,107.85,9.682c1.046-0.873,2.059-1.771,3.047-2.688
					c0.252,0.253,0.518,0.484,0.771,0.73c0.43,0.422,0.854,0.849,1.292,1.248l0.01-0.016c28.578,26.352,73.012,27.296,102.682,0.922
					C410.503,198.711,413.356,150.297,385.276,118.676z M199.135,186.903c-10.543-12.616-8.862-31.388,3.757-41.929
					c9.534-7.968,22.575-8.941,32.924-3.508c0,0.008-0.005,0.037-0.005,0.037c3.751,1.992,6.943,4.738,9.454,7.958
					c0.081,0.103,0.153,0.198,0.238,0.297c0.8,1.074,1.563,2.198,2.205,3.38c0.091,0.148,0.196,0.305,0.286,0.48
					c2.154,3.99,3.334,8.328,3.541,12.721c-0.049,1.197-0.07,2.393-0.066,3.594c-0.536,7.468-3.842,14.729-9.875,20.097
					c-3.838,3.415-8.323,5.66-12.998,6.735l0.025,0.053C218.056,199.227,206.557,195.785,199.135,186.903z M347.786,191.791
					c-12.285,10.905-31.105,9.787-42.008-2.491c-1.031-1.157-1.922-2.394-2.736-3.654c-2.746-4.261-4.244-9.032-4.603-13.876
					c0.102-1.963,0.121-3.93,0.074-5.899c0.152-1.227,0.353-2.454,0.658-3.657h0.006c0.068-0.274,0.162-0.543,0.238-0.815
					c0.15-0.526,0.303-1.052,0.484-1.571c0.123-0.361,0.26-0.719,0.4-1.075c0.178-0.46,0.369-0.917,0.572-1.37
					c0.15-0.334,0.293-0.67,0.457-1.002c0.316-0.639,0.658-1.27,1.021-1.892c0.137-0.237,0.283-0.474,0.43-0.708
					c0.375-0.603,0.773-1.195,1.197-1.773c0.176-0.241,0.361-0.479,0.545-0.716c0.393-0.502,0.801-0.993,1.227-1.474
					c0.182-0.207,0.361-0.414,0.549-0.613c0.621-0.664,1.268-1.314,1.961-1.93c0.709-0.628,1.443-1.208,2.193-1.756
					c0.227-0.166,0.459-0.314,0.688-0.472c0.52-0.36,1.045-0.704,1.582-1.024c0.311-0.189,0.627-0.367,0.945-0.545
					c0.439-0.24,0.887-0.465,1.334-0.684c0.396-0.191,0.791-0.389,1.193-0.562c0.285-0.121,0.576-0.229,0.867-0.34
					c2.674-1.053,5.461-1.715,8.281-1.969v-0.002c9.084-0.818,18.418,2.506,24.939,9.855
					C361.181,162.045,360.075,180.869,347.786,191.791z"/>
			</g>
			<g id="inner_shadow_2_">
				
					<linearGradient id="bottom_1_" gradientUnits="userSpaceOnUse" x1="2857.8628" y1="-9646.5996" x2="2850.9836" y2="-9685.9092" gradientTransform="matrix(0.6641 0.7477 0.7477 -0.6641 5586.4946 -8347.7988)">
					<stop  offset="0.4172" style="stop-color:#B3B3B3"/>
					<stop  offset="0.9202" style="stop-color:#FFFFFF;stop-opacity:0"/>
				</linearGradient>
				<path id="bottom_5_" fill="url(#bottom_1_)" d="M272.939,223.639c-0.236-0.229-0.412-0.414-0.584-0.598
					c-1.131-1.188-2.242-2.408-3.311-3.685c-10.673-12.779-16.453-28.017-17.578-43.443l-0.84-0.04
					c-0.07,0.276-0.165,0.545-0.243,0.817c-0.148,0.525-0.304,1.049-0.482,1.57c-0.126,0.357-0.264,0.718-0.403,1.074
					c-0.177,0.461-0.369,0.917-0.57,1.369c-0.15,0.334-0.295,0.672-0.459,1.001c-0.314,0.644-0.656,1.273-1.021,1.894
					c-0.138,0.242-0.284,0.475-0.432,0.711c-0.374,0.602-0.773,1.191-1.194,1.771c-0.177,0.244-0.363,0.477-0.547,0.715
					c-0.391,0.502-0.8,0.996-1.227,1.477c-0.184,0.203-0.361,0.409-0.549,0.61c-0.623,0.667-1.266,1.316-1.96,1.928
					c-0.708,0.63-1.446,1.21-2.194,1.761c-0.227,0.161-0.458,0.311-0.685,0.471c-0.522,0.358-1.048,0.701-1.584,1.026
					c-0.312,0.186-0.627,0.367-0.943,0.542c-0.443,0.241-0.887,0.467-1.338,0.684c-0.396,0.192-0.789,0.386-1.191,0.562
					c-0.286,0.122-0.577,0.227-0.866,0.34c-2.677,1.061-5.464,1.718-8.283,1.971c1.886,11.799,5.058,32.068,7.02,46.348
					c0.05-0.008,0.096-0.008,0.144-0.016c1.673-0.216,3.337-0.496,4.995-0.82c0.295-0.059,0.589-0.123,0.884-0.186
					c1.645-0.342,3.287-0.727,4.913-1.181c0.023-0.007,0.044-0.013,0.066-0.017c1.682-0.471,3.348-1.014,5.002-1.602
					c0.264-0.095,0.525-0.191,0.789-0.288c3.259-1.204,6.455-2.632,9.564-4.292c0.288-0.153,0.575-0.314,0.864-0.472
					c3.045-1.681,6.005-3.583,8.854-5.715c0.318-0.239,0.637-0.481,0.954-0.726c1.4-1.076,2.782-2.197,4.126-3.388
					c0.436-0.387,0.843-0.794,1.266-1.191C273.574,224.302,273.256,223.968,272.939,223.639z"/>
				
					<linearGradient id="top_1_" gradientUnits="userSpaceOnUse" x1="3357.9329" y1="-9638.708" x2="3351.1567" y2="-9677.4277" gradientTransform="matrix(-0.6641 -0.7477 -0.7477 0.6641 -4697.6665 9053.7949)">
					<stop  offset="0.4172" style="stop-color:#B3B3B3"/>
					<stop  offset="0.9202" style="stop-color:#FFFFFF;stop-opacity:0"/>
				</linearGradient>
				<path id="top_5_" fill="url(#top_1_)" d="M277.882,114.133c0.232,0.229,0.408,0.41,0.574,0.588
					c1.117,1.172,2.213,2.371,3.266,3.634c10.525,12.583,16.223,27.579,17.334,42.767l0.828,0.041
					c0.068-0.27,0.162-0.533,0.238-0.802c0.148-0.52,0.303-1.032,0.478-1.546c0.123-0.356,0.258-0.707,0.395-1.061
					c0.176-0.451,0.365-0.898,0.565-1.348c0.148-0.33,0.291-0.658,0.453-0.982c0.309-0.635,0.648-1.255,1.006-1.867
					c0.135-0.234,0.279-0.463,0.426-0.697c0.369-0.594,0.76-1.174,1.178-1.744c0.174-0.238,0.357-0.471,0.539-0.705
					c0.385-0.494,0.789-0.979,1.209-1.453c0.18-0.201,0.354-0.402,0.543-0.604c0.611-0.653,1.246-1.292,1.932-1.897
					c0.699-0.62,1.422-1.19,2.164-1.729c0.221-0.161,0.449-0.31,0.676-0.465c0.514-0.355,1.031-0.693,1.56-1.009
					c0.307-0.187,0.619-0.36,0.934-0.536c0.434-0.237,0.871-0.461,1.316-0.672c0.391-0.194,0.777-0.383,1.174-0.553
					c0.283-0.123,0.572-0.229,0.855-0.336c2.641-1.046,5.389-1.691,8.166-1.941c-1.857-11.619-4.986-31.571-6.922-45.631
					c-0.049,0.006-0.094,0.008-0.143,0.015c-1.649,0.214-3.289,0.487-4.924,0.81c-0.289,0.058-0.578,0.119-0.871,0.182
					c-1.621,0.338-3.24,0.715-4.846,1.164c-0.023,0.006-0.043,0.01-0.064,0.016c-1.658,0.464-3.301,0.998-4.932,1.578
					c-0.26,0.09-0.52,0.187-0.779,0.282c-3.213,1.183-6.363,2.589-9.43,4.224c-0.285,0.154-0.57,0.311-0.852,0.467
					c-3.006,1.654-5.924,3.528-8.734,5.625c-0.312,0.232-0.627,0.473-0.941,0.713c-1.379,1.064-2.742,2.162-4.068,3.338
					c-0.428,0.381-0.828,0.78-1.248,1.172C276.116,114.488,277.567,113.814,277.882,114.133z"/>
			</g>
		</g>
	</g>
</g>
<g id="text">
</g>
</svg>
